<?xml version="1.0" encoding="UTF-8" standalone="no"?>
<!-- Generator: Adobe Illustrator 21.0.0, SVG Export Plug-In . SVG Version: 6.00 Build 0)  -->

<svg
   version="1.1"
   id="svg2"
   x="0px"
   y="0px"
   viewBox="0 0 571.3 156.7"
   xml:space="preserve"
   sodipodi:docname="astroquery_project_logo_dark.svg"
   width="571.29999"
   height="156.7"
   inkscape:version="1.3 (1:1.3+202307231459+0e150ed6c4)"
   xmlns:inkscape="http://www.inkscape.org/namespaces/inkscape"
   xmlns:sodipodi="http://sodipodi.sourceforge.net/DTD/sodipodi-0.dtd"
   xmlns="http://www.w3.org/2000/svg"
   xmlns:svg="http://www.w3.org/2000/svg"><defs
   id="defs19" /><sodipodi:namedview
   id="namedview19"
   pagecolor="#505050"
   bordercolor="#ffffff"
   borderopacity="1"
   inkscape:showpageshadow="0"
   inkscape:pageopacity="0"
   inkscape:pagecheckerboard="1"
   inkscape:deskcolor="#d1d1d1"
   inkscape:zoom="1.2840545"
   inkscape:cx="268.68018"
   inkscape:cy="158.09298"
   inkscape:window-width="1920"
   inkscape:window-height="1004"
   inkscape:window-x="0"
   inkscape:window-y="40"
   inkscape:window-maximized="1"
   inkscape:current-layer="svg2" />&#10;<style
   type="text/css"
   id="style1">&#10;	.st0{fill:url(#path3837_1_);}&#10;	.st1{fill:none;stroke:#FFFFFF;stroke-width:13;}&#10;	.st2{fill:#FFFFFF;}&#10;	.st3{fill:#FFFFFF;stroke:#FFFFFF;stroke-width:2.3603;stroke-linecap:round;stroke-linejoin:round;}&#10;	.st4{fill:none;stroke:#FFFFFF;stroke-width:3.7264;}&#10;	.st5{fill:none;stroke:#FFFFFF;stroke-width:4.0254;}&#10;	.st6{fill:none;stroke:#FFFFFF;stroke-width:4.063;}&#10;	.st7{enable-background:new    ;}&#10;	.st8{fill:#4D4D4D;}&#10;	.st9{fill:#FF5000;}&#10;</style>&#10;<g
   id="g2">&#10;	&#10;		<linearGradient
   id="path3837_1_"
   gradientUnits="userSpaceOnUse"
   x1="-737.88348"
   y1="1639.9272"
   x2="-817.26678"
   y2="1735.7957"
   gradientTransform="matrix(1.0651,-0.9041,0.8901,1.0732,-593.9965,-2438.5088)">&#10;		<stop
   offset="0"
   style="stop-color:#FFA900"
   id="stop1" />&#10;		<stop
   offset="1"
   style="stop-color:#FD0000"
   id="stop2" />&#10;	</linearGradient>&#10;	<path
   id="path3837"
   class="st0"
   d="m 140.9,25.4 c 23.8,28.7 16,75.1 -17.5,103.6 -33.5,28.5 -80,28.2 -103.9,-0.5 v 0 C -4.4,99.7 3.5,53.3 37,24.9 70.5,-3.5 117,-3.3 140.9,25.4 Z"
   style="fill:url(#path3837_1_)" />&#10;	<path
   id="path5413"
   class="st1"
   d="M 82.1,75.6 C 60.7,56.3 48.5,84 59.9,101.1 c 12.5,18.8 39.4,18.4 55.2,4.3 20,-17.8 19.5,-49.7 2,-69" />&#10;	<path
   id="path3819"
   class="st2"
   d="M 95,91.3 C 90.2,96 78.9,93.9 69.7,86.8 v 0 C 60.5,79.6 57,70 61.8,65.4 v 0 c 4.8,-4.7 16.1,-2.6 25.3,4.5 v 0 C 96.3,77 99.9,86.6 95,91.3 Z" />&#10;	<path
   id="path3853"
   class="st3"
   d="M 101.1,28.5 110.4,44.2 124.7,30 106.6,22.4 Z" />&#10;	<g
   id="g3804"
   transform="matrix(0.95039189,0,0,0.93299787,-2.487134,-0.56516029)">&#10;		<path
   id="path3855-7"
   class="st4"
   d="m 105.7,23 -1.6,-9.7 0.1,0.3 v 0" />&#10;		<path
   id="path3855-7-0"
   class="st5"
   d="m 95.6,22.1 10.7,0.5 H 106 v 0" />&#10;		<path
   id="path3855-7-05"
   class="st6"
   d="m 111.9,27.7 -6.8,-5.4 0.3,0.2 v 0" />&#10;	</g>&#10;	<path
   id="path3942"
   class="st1"
   d="m 51.8,131.2 c 2.4,2.1 10.5,5.5 13.3,9 2.9,3.6 2.4,7.8 2.4,10.2" />&#10;	<path
   id="path2987-5"
   class="st1"
   d="m 76.7,83.7 c 26.2,14.4 31.4,-16 15.8,-30.4 -17.2,-15.9 -44,-9.3 -56.3,8.4 -15.8,22.6 -7.1,54.6 15.6,69.6 0.8,0.6 1.7,1.1 2.6,1.6" />&#10;</g>&#10;<g
   class="st7"
   id="g6"
   style="fill:#b3b3b3">&#10;	<path
   class="st8"
   d="m 190.2,89.1 h -21.7 l -5.7,18.2 h -7.7 l 20.2,-59.7 h 8.6 l 20.2,59.7 H 196 Z m -2,-6.1 -2.8,-9.1 c -1.1,-3.3 -2.1,-6.7 -3.1,-10 -1,-3.3 -1.9,-6.7 -2.9,-10.1 H 179 c -0.9,3.5 -1.9,6.8 -2.8,10.1 -1,3.3 -2,6.6 -3.1,10 l -2.8,9.1 z"
   id="path2"
   style="fill:#b3b3b3" />&#10;	<path
   class="st8"
   d="m 225.3,108.4 c -3.2,0 -6.2,-0.6 -9,-1.7 -2.9,-1.2 -5.3,-2.6 -7.5,-4.4 l 3.7,-5 c 1.9,1.6 3.9,2.9 6,3.8 2,1 4.4,1.5 7.1,1.5 2.9,0 5.1,-0.7 6.6,-2 1.5,-1.3 2.2,-3 2.2,-4.9 0,-1.2 -0.3,-2.2 -0.9,-3 -0.6,-0.8 -1.4,-1.6 -2.3,-2.2 -0.9,-0.6 -2,-1.2 -3.2,-1.7 -1.2,-0.5 -2.4,-1 -3.6,-1.5 -1.6,-0.5 -3.2,-1.2 -4.7,-1.9 -1.6,-0.7 -3,-1.5 -4.2,-2.5 -1.2,-1 -2.3,-2.2 -3,-3.5 -0.8,-1.3 -1.2,-2.9 -1.2,-4.8 0,-1.8 0.3,-3.4 1,-5 0.7,-1.5 1.7,-2.9 3,-4 1.3,-1.1 2.9,-2 4.8,-2.6 1.9,-0.6 4,-1 6.4,-1 2.8,0 5.4,0.5 7.7,1.5 2.3,1 4.4,2.2 6.1,3.5 l -3.5,4.7 c -1.5,-1.2 -3.1,-2.1 -4.7,-2.8 -1.6,-0.7 -3.4,-1.1 -5.4,-1.1 -2.8,0 -4.8,0.6 -6.1,1.9 -1.3,1.3 -2,2.8 -2,4.5 0,1 0.3,1.9 0.8,2.7 0.5,0.8 1.3,1.4 2.2,2 0.9,0.6 2,1.1 3.1,1.5 1.1,0.4 2.4,0.9 3.7,1.4 1.6,0.6 3.2,1.2 4.8,1.9 1.6,0.7 3,1.5 4.3,2.5 1.3,1 2.3,2.2 3.1,3.7 0.8,1.5 1.2,3.2 1.2,5.3 0,1.8 -0.3,3.5 -1,5.1 -0.7,1.6 -1.7,3 -3.1,4.2 -1.4,1.2 -3.1,2.2 -5.1,2.9 -2.4,0.6 -4.7,1 -7.3,1 z"
   id="path3"
   style="fill:#b3b3b3" />&#10;	<path
   class="st8"
   d="m 264,108.4 c -2.4,0 -4.4,-0.4 -6,-1.1 -1.6,-0.7 -2.9,-1.7 -3.9,-3 -1,-1.3 -1.7,-2.8 -2.1,-4.6 -0.4,-1.8 -0.6,-3.8 -0.6,-6 V 69.1 h -6.6 v -5.6 l 6.9,-0.5 0.9,-12.4 h 6.3 V 63 h 11.9 v 6.1 h -11.9 v 24.6 c 0,2.7 0.5,4.8 1.5,6.3 1,1.5 2.8,2.2 5.3,2.2 0.8,0 1.6,-0.1 2.5,-0.4 0.9,-0.2 1.7,-0.5 2.5,-0.8 l 1.5,5.6 c -1.2,0.4 -2.5,0.8 -4,1.1 -1.4,0.5 -2.8,0.7 -4.2,0.7 z"
   id="path4"
   style="fill:#b3b3b3" />&#10;	<path
   class="st8"
   d="m 280.8,63 h 6.2 l 0.6,8 h 0.3 c 1.5,-2.8 3.4,-5 5.5,-6.6 2.2,-1.6 4.5,-2.5 7.1,-2.5 1.8,0 3.3,0.3 4.7,0.9 l -1.5,6.6 c -0.7,-0.2 -1.4,-0.4 -2,-0.5 -0.6,-0.1 -1.4,-0.2 -2.3,-0.2 -1.9,0 -3.8,0.8 -5.9,2.3 -2,1.5 -3.8,4.2 -5.3,7.9 v 28.4 h -7.5 V 63 Z"
   id="path5"
   style="fill:#b3b3b3" />&#10;	<path
   class="st8"
   d="m 328.7,108.4 c -2.7,0 -5.3,-0.5 -7.8,-1.5 -2.5,-1 -4.6,-2.5 -6.5,-4.5 -1.9,-2 -3.4,-4.4 -4.5,-7.3 -1.1,-2.9 -1.7,-6.1 -1.7,-9.8 0,-3.7 0.6,-7 1.7,-9.9 1.1,-2.9 2.6,-5.3 4.5,-7.3 1.9,-2 4,-3.5 6.5,-4.6 2.5,-1 5.1,-1.5 7.8,-1.5 2.7,0 5.3,0.5 7.8,1.5 2.5,1 4.6,2.5 6.5,4.6 1.9,2 3.4,4.4 4.5,7.3 1.1,2.9 1.7,6.2 1.7,9.9 0,3.6 -0.6,6.9 -1.7,9.8 -1.1,2.9 -2.6,5.3 -4.5,7.3 -1.9,2 -4,3.5 -6.5,4.5 -2.5,1 -5.1,1.5 -7.8,1.5 z m 0,-6.2 c 1.9,0 3.6,-0.4 5.2,-1.2 1.6,-0.8 2.9,-2 4,-3.5 1.1,-1.5 2,-3.3 2.6,-5.3 0.6,-2.1 0.9,-4.4 0.9,-6.9 0,-2.5 -0.3,-4.9 -0.9,-7 -0.6,-2.1 -1.5,-3.9 -2.6,-5.4 -1.1,-1.5 -2.5,-2.7 -4,-3.5 -1.6,-0.8 -3.3,-1.2 -5.2,-1.2 -1.9,0 -3.6,0.4 -5.2,1.2 -1.6,0.8 -2.9,2 -4,3.5 -1.1,1.5 -2,3.3 -2.6,5.4 -0.6,2.1 -0.9,4.4 -0.9,7 0,2.5 0.3,4.9 0.9,6.9 0.6,2.1 1.5,3.8 2.6,5.3 1.1,1.5 2.5,2.6 4,3.5 1.5,0.8 3.3,1.2 5.2,1.2 z"
   id="path6"
   style="fill:#b3b3b3" />&#10;</g>&#10;<g
   class="st7"
   id="g8">&#10;	&#10;	&#10;<text
   xml:space="preserve"
   style="font-size:85.3333px;line-height:1.25;font-family:'Fira Sans';-inkscape-font-specification:'Fira Sans, Normal';letter-spacing:0px;word-spacing:0px;fill:#ff5000;fill-opacity:1"
   x="350.88947"
   y="107.86121"
   id="text19"><tspan
     sodipodi:role="line"
     id="tspan19"
     x="350.88947"
     y="107.86121"
     style="font-style:normal;font-variant:normal;font-weight:300;font-stretch:normal;font-size:85.3333px;font-family:'Fira Sans';-inkscape-font-specification:'Fira Sans Light'">query</tspan></text></g>&#10;<g
   class="st7"
   id="g11">&#10;	<path
   class="st8"
   d="m 160.9,21.9 h -5.5 v -1 h 12.1 v 1 H 162 V 38 h -1.2 V 21.9 Z"
   id="path9" />&#10;	<path
   class="st8"
   d="m 170.7,19.3 h 1.1 v 8.2 c 0.7,-0.7 1.3,-1.2 2,-1.6 0.7,-0.4 1.4,-0.6 2.3,-0.6 1.3,0 2.3,0.4 2.9,1.2 0.6,0.8 0.9,2 0.9,3.6 v 8 h -1.1 v -7.9 c 0,-1.3 -0.2,-2.3 -0.7,-3 -0.5,-0.7 -1.2,-0.9 -2.2,-0.9 -0.7,0 -1.4,0.2 -2,0.6 -0.6,0.4 -1.3,1 -2.1,1.8 V 38 h -1.1 z"
   id="path10" />&#10;	<path
   class="st8"
   d="m 189.1,38.3 c -0.8,0 -1.5,-0.1 -2.2,-0.4 -0.7,-0.3 -1.3,-0.7 -1.8,-1.3 -0.5,-0.6 -0.9,-1.2 -1.2,-2.1 -0.3,-0.8 -0.5,-1.7 -0.5,-2.7 0,-1 0.2,-1.9 0.5,-2.8 0.3,-0.8 0.7,-1.5 1.2,-2.1 0.5,-0.6 1.1,-1 1.7,-1.3 0.6,-0.3 1.3,-0.5 2,-0.5 1.5,0 2.7,0.5 3.5,1.5 0.8,1 1.3,2.4 1.3,4.3 0,0.2 0,0.3 0,0.5 0,0.2 0,0.3 -0.1,0.5 h -9 c 0,0.8 0.1,1.5 0.4,2.2 0.2,0.7 0.5,1.2 0.9,1.7 0.4,0.5 0.9,0.8 1.5,1.1 0.6,0.3 1.2,0.4 1.9,0.4 0.7,0 1.3,-0.1 1.8,-0.3 0.5,-0.2 1.1,-0.5 1.5,-0.8 l 0.5,0.9 c -0.5,0.3 -1.1,0.6 -1.7,0.8 -0.6,0.2 -1.2,0.4 -2.2,0.4 z m 3.4,-7.4 c 0,-1.6 -0.3,-2.8 -1,-3.6 -0.7,-0.8 -1.6,-1.2 -2.7,-1.2 -0.5,0 -1,0.1 -1.5,0.3 -0.5,0.2 -0.9,0.5 -1.3,0.9 -0.4,0.4 -0.7,0.9 -1,1.5 -0.3,0.6 -0.4,1.3 -0.5,2 h 8 z"
   id="path11" />&#10;</g>&#10;<g
   id="g19">&#10;	<g
   class="st7"
   id="g18">&#10;		<path
   class="st9"
   d="m 241.7,117.8 h 5.7 c 1.3,0 2.4,0.1 3.4,0.3 1,0.2 1.9,0.6 2.6,1.1 0.7,0.5 1.2,1.2 1.6,2 0.4,0.8 0.6,1.8 0.6,3 0,2.3 -0.7,4 -2.1,5.1 -1.4,1.1 -3.4,1.7 -5.9,1.7 h -4.2 v 9.9 h -1.6 v -23.1 z m 5.4,11.7 c 2.3,0 4,-0.4 5.1,-1.3 1.1,-0.9 1.7,-2.2 1.7,-4.1 0,-1.9 -0.6,-3.3 -1.7,-4 -1.2,-0.7 -2.9,-1.1 -5.2,-1.1 h -3.7 v 10.4 h 3.8 z"
   id="path12" />&#10;		<path
   class="st9"
   d="m 260.3,124 h 1.3 l 0.1,3.1 h 0.1 c 0.5,-1.1 1.2,-1.9 2,-2.6 0.8,-0.7 1.7,-1 2.7,-1 0.3,0 0.6,0 0.9,0.1 0.3,0.1 0.5,0.1 0.8,0.3 l -0.3,1.4 c -0.3,-0.1 -0.5,-0.2 -0.7,-0.2 -0.2,0 -0.5,-0.1 -0.8,-0.1 -0.7,0 -1.5,0.3 -2.3,1 -0.8,0.6 -1.5,1.8 -2.2,3.3 v 11.4 h -1.5 V 124 Z"
   id="path13" />&#10;		<path
   class="st9"
   d="m 276.8,141.2 c -1,0 -1.9,-0.2 -2.8,-0.6 -0.9,-0.4 -1.7,-1 -2.3,-1.7 -0.7,-0.7 -1.2,-1.7 -1.6,-2.7 -0.4,-1.1 -0.6,-2.3 -0.6,-3.7 0,-1.4 0.2,-2.7 0.6,-3.8 0.4,-1.1 0.9,-2 1.6,-2.8 0.7,-0.7 1.5,-1.3 2.3,-1.7 0.9,-0.4 1.8,-0.6 2.8,-0.6 1,0 1.9,0.2 2.8,0.6 0.9,0.4 1.7,1 2.4,1.7 0.7,0.7 1.2,1.7 1.6,2.8 0.4,1.1 0.6,2.4 0.6,3.8 0,1.4 -0.2,2.6 -0.6,3.7 -0.4,1.1 -0.9,2 -1.6,2.7 -0.7,0.7 -1.5,1.3 -2.4,1.7 -0.9,0.4 -1.9,0.6 -2.8,0.6 z m 0,-1.3 c 0.8,0 1.6,-0.2 2.3,-0.5 0.7,-0.4 1.3,-0.9 1.8,-1.5 0.5,-0.6 0.9,-1.4 1.2,-2.3 0.3,-0.9 0.4,-1.9 0.4,-3 0,-1.1 -0.1,-2.1 -0.4,-3 -0.3,-0.9 -0.7,-1.7 -1.2,-2.4 -0.5,-0.7 -1.1,-1.2 -1.8,-1.5 -0.7,-0.4 -1.5,-0.5 -2.3,-0.5 -0.8,0 -1.6,0.2 -2.3,0.5 -0.7,0.4 -1.3,0.9 -1.8,1.5 -0.5,0.6 -0.9,1.5 -1.2,2.4 -0.3,0.9 -0.4,1.9 -0.4,3 0,1.1 0.1,2.1 0.4,3 0.3,0.9 0.7,1.7 1.2,2.3 0.5,0.6 1.1,1.2 1.8,1.5 0.7,0.3 1.4,0.5 2.3,0.5 z"
   id="path14" />&#10;		<path
   class="st9"
   d="m 286.9,148.8 c -0.4,0 -0.8,0 -1.2,-0.1 -0.4,-0.1 -0.7,-0.2 -1,-0.3 l 0.4,-1.3 c 0.2,0.1 0.5,0.1 0.8,0.2 0.3,0.1 0.6,0.1 0.9,0.1 0.9,0 1.5,-0.3 1.8,-1 0.3,-0.7 0.4,-1.6 0.4,-2.6 V 124 h 1.5 v 19.9 c 0,1.7 -0.3,2.9 -0.9,3.7 -0.5,0.8 -1.4,1.2 -2.7,1.2 z m 3,-28.8 c -0.4,0 -0.7,-0.1 -1,-0.4 -0.3,-0.3 -0.4,-0.6 -0.4,-1 0,-0.4 0.1,-0.8 0.4,-1 0.3,-0.2 0.6,-0.4 1,-0.4 0.4,0 0.7,0.1 1,0.4 0.3,0.2 0.4,0.6 0.4,1 0,0.4 -0.1,0.7 -0.4,1 -0.3,0.2 -0.7,0.4 -1,0.4 z"
   id="path15" />&#10;		<path
   class="st9"
   d="m 303.1,141.2 c -1,0 -2,-0.2 -3,-0.6 -1,-0.4 -1.7,-1 -2.4,-1.7 -0.7,-0.7 -1.2,-1.7 -1.6,-2.8 -0.4,-1.1 -0.6,-2.3 -0.6,-3.7 0,-1.4 0.2,-2.6 0.6,-3.7 0.4,-1.1 0.9,-2 1.6,-2.8 0.7,-0.8 1.4,-1.3 2.3,-1.8 0.9,-0.5 1.7,-0.6 2.7,-0.6 2,0 3.5,0.7 4.6,2 1.1,1.4 1.7,3.3 1.7,5.7 0,0.2 0,0.4 0,0.6 0,0.2 0,0.4 -0.1,0.6 h -11.8 c 0,1.1 0.2,2 0.5,2.9 0.3,0.9 0.7,1.7 1.2,2.3 0.5,0.6 1.2,1.1 1.9,1.5 0.8,0.4 1.6,0.5 2.5,0.5 0.9,0 1.7,-0.1 2.4,-0.4 0.7,-0.3 1.4,-0.6 2,-1.1 l 0.6,1.2 c -0.7,0.4 -1.4,0.8 -2.2,1.1 -0.7,0.7 -1.7,0.8 -2.9,0.8 z m 4.4,-9.8 c 0,-2.2 -0.4,-3.8 -1.3,-4.8 -0.9,-1.1 -2,-1.6 -3.5,-1.6 -0.7,0 -1.4,0.1 -2,0.4 -0.6,0.3 -1.2,0.7 -1.7,1.3 -0.5,0.6 -0.9,1.2 -1.3,2 -0.3,0.8 -0.5,1.7 -0.6,2.7 z"
   id="path16" />&#10;		<path
   class="st9"
   d="m 319.5,141.2 c -1.1,0 -2.1,-0.2 -3,-0.6 -0.9,-0.4 -1.7,-1 -2.4,-1.7 -0.7,-0.7 -1.2,-1.7 -1.6,-2.7 -0.4,-1 -0.6,-2.3 -0.6,-3.7 0,-1.4 0.2,-2.7 0.6,-3.8 0.4,-1.1 1,-2 1.6,-2.8 0.7,-0.7 1.5,-1.3 2.4,-1.7 0.9,-0.4 1.9,-0.6 2.9,-0.6 1.1,0 2.1,0.2 2.8,0.6 0.7,0.4 1.4,0.9 2,1.4 l -0.9,1.1 c -0.5,-0.5 -1.1,-0.9 -1.7,-1.3 -0.6,-0.3 -1.4,-0.5 -2.2,-0.5 -0.8,0 -1.6,0.2 -2.3,0.5 -0.7,0.4 -1.3,0.9 -1.9,1.5 -0.5,0.7 -1,1.5 -1.3,2.4 -0.3,0.9 -0.5,1.9 -0.5,3 0,1.1 0.1,2.1 0.4,3 0.3,0.9 0.7,1.7 1.2,2.3 0.5,0.7 1.1,1.2 1.9,1.5 0.7,0.4 1.6,0.5 2.4,0.5 0.9,0 1.7,-0.2 2.4,-0.6 0.7,-0.4 1.4,-0.8 2,-1.4 l 0.8,1.1 c -0.7,0.6 -1.5,1.2 -2.4,1.6 -0.9,0.4 -1.5,0.9 -2.6,0.9 z"
   id="path17" />&#10;		<path
   class="st9"
   d="m 332.9,141.2 c -0.8,0 -1.5,-0.1 -2,-0.4 -0.5,-0.2 -0.9,-0.6 -1.3,-1 -0.4,-0.4 -0.5,-1 -0.7,-1.6 -0.1,-0.6 -0.2,-1.3 -0.2,-2.1 v -10.8 h -2.6 v -1.2 l 2.6,-0.1 0.2,-4.9 h 1.3 v 4.9 h 4.8 v 1.3 h -4.8 v 11 c 0,0.5 0,1 0.1,1.5 0.1,0.4 0.2,0.8 0.4,1.1 0.2,0.3 0.5,0.6 0.8,0.7 0.4,0.2 0.8,0.3 1.4,0.3 0.3,0 0.7,-0.1 1,-0.2 0.3,-0.1 0.7,-0.2 1,-0.4 l 0.4,1.3 c -0.5,0.2 -1,0.3 -1.4,0.5 -0.2,0.1 -0.6,0.1 -1,0.1 z"
   id="path18" />&#10;	</g>&#10;</g>&#10;</svg>
